<svg width="1600" height="1032" viewBox="0 0 1600 1032" fill="none" xmlns="http://www.w3.org/2000/svg">
<path d="M1348.22 765.167C1348.22 716.106 1308.45 676.333 1259.39 676.333C1210.33 676.333 1170.55 716.106 1170.55 765.167C1170.55 814.228 1210.33 854 1259.39 854C1308.45 854 1348.22 814.228 1348.22 765.167ZM592.776 427.915C543.715 427.915 503.944 467.687 503.943 516.748C503.943 565.809 543.715 605.582 592.776 605.582C641.838 605.582 681.61 565.809 681.61 516.748C681.61 467.687 641.838 427.915 592.776 427.915ZM1513 265.833C1513 216.772 1473.23 177 1424.17 177C1375.11 177 1335.33 216.772 1335.33 265.833C1335.33 314.894 1375.11 354.667 1424.17 354.667C1473.23 354.667 1513 314.894 1513 265.833ZM87 516.748C87 565.809 126.772 605.582 175.833 605.582C224.894 605.582 264.667 565.809 264.667 516.748C264.667 467.687 224.894 427.915 175.833 427.915C126.772 427.915 87.0001 467.687 87 516.748ZM1585 265.833C1585 354.659 1512.99 426.667 1424.17 426.667C1347.72 426.667 1283.73 373.327 1267.38 301.833H1076.24C1022.22 301.833 978.423 345.629 978.423 399.654C978.423 446.585 957.306 488.583 924.056 516.666C957.295 544.49 978.423 586.289 978.423 633.001C978.423 686.112 1021.48 729.167 1074.59 729.167H1102.6C1118.95 657.673 1182.94 604.333 1259.39 604.333C1348.21 604.333 1420.22 676.341 1420.22 765.167C1420.22 853.993 1348.21 926 1259.39 926C1182.94 926 1118.95 872.66 1102.6 801.167H1074.59C981.714 801.167 906.423 725.876 906.423 633.001C906.423 589.187 871.034 553.601 827.221 553.357L749.523 552.926C733.11 624.33 669.163 677.582 592.776 677.582C516.327 677.582 452.337 624.242 435.989 552.748H332.62C316.272 624.242 252.282 677.582 175.833 677.582C87.0074 677.582 15 605.574 15 516.748C15.0001 427.923 87.0075 355.915 175.833 355.915C252.282 355.915 316.272 409.255 332.62 480.748H435.989C452.337 409.255 516.327 355.915 592.776 355.915C669.226 355.915 733.215 409.255 749.563 480.748H825.329C870.116 480.748 906.423 444.441 906.423 399.654C906.423 305.865 982.455 229.833 1076.24 229.833H1267.38C1283.73 158.34 1347.72 105 1424.17 105C1512.99 105 1585 177.007 1585 265.833Z" fill="url(#paint0_linear_1469_1324)"/>
<path d="M1348.22 765.167C1348.22 716.106 1308.45 676.333 1259.39 676.333C1210.33 676.333 1170.55 716.106 1170.55 765.167C1170.55 814.228 1210.33 854 1259.39 854C1308.45 854 1348.22 814.228 1348.22 765.167ZM592.776 427.915C543.715 427.915 503.944 467.687 503.943 516.748C503.943 565.809 543.715 605.582 592.776 605.582C641.838 605.582 681.61 565.809 681.61 516.748C681.61 467.687 641.838 427.915 592.776 427.915ZM1513 265.833C1513 216.772 1473.23 177 1424.17 177C1375.11 177 1335.33 216.772 1335.33 265.833C1335.33 314.894 1375.11 354.667 1424.17 354.667C1473.23 354.667 1513 314.894 1513 265.833ZM87 516.748C87 565.809 126.772 605.582 175.833 605.582C224.894 605.582 264.667 565.809 264.667 516.748C264.667 467.687 224.894 427.915 175.833 427.915C126.772 427.915 87.0001 467.687 87 516.748ZM1585 265.833C1585 354.659 1512.99 426.667 1424.17 426.667C1347.72 426.667 1283.73 373.327 1267.38 301.833H1076.24C1022.22 301.833 978.423 345.629 978.423 399.654C978.423 446.585 957.306 488.583 924.056 516.666C957.295 544.49 978.423 586.289 978.423 633.001C978.423 686.112 1021.48 729.167 1074.59 729.167H1102.6C1118.95 657.673 1182.94 604.333 1259.39 604.333C1348.21 604.333 1420.22 676.341 1420.22 765.167C1420.22 853.993 1348.21 926 1259.39 926C1182.94 926 1118.95 872.66 1102.6 801.167H1074.59C981.714 801.167 906.423 725.876 906.423 633.001C906.423 589.187 871.034 553.601 827.221 553.357L749.523 552.926C733.11 624.33 669.163 677.582 592.776 677.582C516.327 677.582 452.337 624.242 435.989 552.748H332.62C316.272 624.242 252.282 677.582 175.833 677.582C87.0074 677.582 15 605.574 15 516.748C15.0001 427.923 87.0075 355.915 175.833 355.915C252.282 355.915 316.272 409.255 332.62 480.748H435.989C452.337 409.255 516.327 355.915 592.776 355.915C669.226 355.915 733.215 409.255 749.563 480.748H825.329C870.116 480.748 906.423 444.441 906.423 399.654C906.423 305.865 982.455 229.833 1076.24 229.833H1267.38C1283.73 158.34 1347.72 105 1424.17 105C1512.99 105 1585 177.007 1585 265.833Z" fill="#C40C19"/>
<defs>
<linearGradient id="paint0_linear_1469_1324" x1="361.594" y1="889.996" x2="662.296" y2="27.4562" gradientUnits="userSpaceOnUse">
<stop stop-color="#717070"/>
<stop offset="1" stop-color="#DADADA"/>
</linearGradient>
</defs>
</svg>
